<?xml version="1.0" encoding="UTF-8"?>
<svg id="Layer_1" xmlns="http://www.w3.org/2000/svg" version="1.1" viewBox="0 0 700.56 1249.03" role="img" aria-label="Certivo spear">
  <!-- Generator: Adobe Illustrator 30.6.0, SVG Export Plug-In . SVG Version: 2.1.4 Build 109)  -->
  <defs>
    <style>
      .st0 {
        fill: #0d1d31;
      }

      .st1 {
        fill: #d6b34a;
      }
    </style>
  </defs>
  <path class="st1" d="M350.35,368.17l-14.36,15.27c-1.86,1.98-1.17,6.08-1.37,9.08l-4.21,27.03c0-7.41-20.36-42.55-18.21-49.74s11.05-11.72,14.66-18.81l-21.34-25.84-24.46,9.4c13.99-26.45,26.58-50.91,37.87-77.68,13.79-32.71,21.95-65.24,31.36-101.29,8.31,28.98,14.38,56.38,24.95,83.95,12.63,32.93,27.55,63.19,44.87,95.16l-24.52-9.9-22.13,26.14,15.6,19.06-21.41,51-.65-28.55-1.67-8.49-14.97-15.79ZM322.71,310.18l16.53,18.43c-6.48-28.24,7.28-50.34,7-76.68-6.32,23.67-12.8,46.97-35.82,60.54,5.29,1.94,7.97-1.27,12.29-2.29ZM378.18,310.57c2.06.21,4.17-1.15,4.31-2.63-7.45-7.03-12.16-15.8-18.03-25.02v41.26s13.72-13.61,13.72-13.61Z"/>
  <polygon class="st1" points="367.63 754.49 330.83 755.15 330.78 392.67 367.63 392.68 367.63 754.49"/>
  <polygon class="st1" points="380.03 1013.47 350.16 1081.14 320.91 1014.93 332.03 973.64 332.56 754.68 367.52 754.69 367.67 974.29 380.03 1013.47"/>
</svg>