<?xml version="1.0" encoding="UTF-8"?>
<svg id="Layer_1" xmlns="http://www.w3.org/2000/svg" version="1.1" viewBox="0 0 700.56 1249.03" role="img" aria-label="Certivo C">
  <!-- Generator: Adobe Illustrator 30.6.0, SVG Export Plug-In . SVG Version: 2.1.4 Build 109)  -->
  <defs>
    <style>
      .st0 {
        fill: #0d1d31;
      }

      .st1 {
        fill: #d6b34a;
      }
    </style>
  </defs>
  <path class="st1" d="M307.65,767.3c30.54,3.79,60.13,3.73,89.48-.21,20.91-2.8,35.58-17,38.88-37.5,2.85-15.17,2.01-30.05,2.08-46.49h84.45c1.44,61-5.42,121.84-67.86,142.28-16.43,5.66-33.06,8.36-50.81,9.51-35.22,2.29-69.8,2.33-104.96.15-16.57-1.03-32-3.44-47.59-7.96-54.76-15.88-71.82-64.34-71.77-118.78l.18-176.85c.02-22.71,3.43-43.82,12.27-64.19,17.91-41.27,57.32-55.6,100.91-59.31,39.79-3.38,78.91-3.31,118.68.02,16.52,1.38,31.68,4.52,46.84,10.16,54.94,20.44,66.46,78.1,63.84,132.83l-84.25-.03c.69-36.46-.79-65.89-39.13-75.53-31.39-4.3-63.42-5-94.9.15-28.64,4.68-39.26,28.8-39.2,57.47l.43,185.96c.06,25.41,15.39,44.94,42.44,48.3Z"/>
</svg>