<?xml version="1.0" encoding="UTF-8"?>
<svg id="Layer_1" xmlns="http://www.w3.org/2000/svg" version="1.1" viewBox="0 0 700.56 1249.03" role="img" aria-label="Certivo shield">
  <!-- Generator: Adobe Illustrator 30.6.0, SVG Export Plug-In . SVG Version: 2.1.4 Build 109)  -->
  <defs>
    <style>
      .st0 {
        fill: #0d1d31;
      }

      .st1 {
        fill: #d6b34a;
      }
    </style>
  </defs>
  <path class="st1" d="M403.69,1134.94l-53.47,59.2-151.81-171.28,5.72-81.51-35.12,44.43-95.72-138.12-.16-449.28,44.38,4.16-43.93-41.91-.13-89.69L350.9,54.9l131.1,100.97,145.44,114.55-.15,90.8-45.49,42.26,45.56-5.07-.15,449.54-95.39,137.68-35.3-44,5.15,81.06-97.99,112.24ZM416.93,1050.46c23.86-26.22,44.98-51.67,66.42-79.35l.41-58.35,26.48,23.15,67.17-96.16.22-262.14-.18-160.63-16.05-4.08,18.28-26.89-.59-89.78-227.99-180.69-108.42,85.13-120.44,95.31-1.04,89.01,18.54,28.02-16.48,4.49.1,421.64,66.73,96.58,26.7-23,.04,57.94,28.42,35.26c33,40.94,68.08,78.95,104.67,118.18l66.99-73.63Z"/>
</svg>