<svg xmlns="http://www.w3.org/2000/svg" viewBox="0 0 512 512" role="img" aria-labelledby="title desc">
  <title id="title">Certivo app icon</title>
  <desc id="desc">A dark blue rounded square app icon with the Certivo gold shield mark.</desc>
  <defs>
    <linearGradient id="bg" x1="76" y1="52" x2="438" y2="462" gradientUnits="userSpaceOnUse">
      <stop offset="0" stop-color="#102135"/>
      <stop offset="0.66" stop-color="#17345a"/>
      <stop offset="1" stop-color="#21567a"/>
    </linearGradient>
    <filter id="shadow" x="-30%" y="-20%" width="160%" height="150%">
      <feDropShadow dx="0" dy="12" stdDeviation="10" flood-color="#07142d" flood-opacity="0.34"/>
    </filter>
  </defs>
  <rect width="512" height="512" rx="96" fill="url(#bg)"/>
  <g filter="url(#shadow)" transform="translate(144 62) scale(.32)" fill="#d6b34a">
    <path d="M403.69,1134.94l-53.47,59.2-151.81-171.28,5.72-81.51-35.12,44.43-95.72-138.12-.16-449.28,44.38,4.16-43.93-41.91-.13-89.69L350.9,54.9l131.1,100.97,145.44,114.55-.15,90.8-45.49,42.26,45.56-5.07-.15,449.54-95.39,137.68-35.3-44,5.15,81.06-97.99,112.24ZM416.93,1050.46c23.86-26.22,44.98-51.67,66.42-79.35l.41-58.35,26.48,23.15,67.17-96.16.22-262.14-.18-160.63-16.05-4.08,18.28-26.89-.59-89.78-227.99-180.69-108.42,85.13-120.44,95.31-1.04,89.01,18.54,28.02-16.48,4.49.1,421.64,66.73,96.58,26.7-23,.04,57.94,28.42,35.26c33,40.94,68.08,78.95,104.67,118.18l66.99-73.63Z"/>
    <path d="M307.65,767.3c30.54,3.79,60.13,3.73,89.48-.21,20.91-2.8,35.58-17,38.88-37.5,2.85-15.17,2.01-30.05,2.08-46.49h84.45c1.44,61-5.42,121.84-67.86,142.28-16.43,5.66-33.06,8.36-50.81,9.51-35.22,2.29-69.8,2.33-104.96.15-16.57-1.03-32-3.44-47.59-7.96-54.76-15.88-71.82-64.34-71.77-118.78l.18-176.85c.02-22.71,3.43-43.82,12.27-64.19,17.91-41.27,57.32-55.6,100.91-59.31,39.79-3.38,78.91-3.31,118.68.02,16.52,1.38,31.68,4.52,46.84,10.16,54.94,20.44,66.46,78.1,63.84,132.83l-84.25-.03c.69-36.46-.79-65.89-39.13-75.53-31.39-4.3-63.42-5-94.9.15-28.64,4.68-39.26,28.8-39.2,57.47l.43,185.96c.06,25.41,15.39,44.94,42.44,48.3Z"/>
    <path d="M350.35,368.17l-14.36,15.27c-1.86,1.98-1.17,6.08-1.37,9.08l-4.21,27.03c0-7.41-20.36-42.55-18.21-49.74s11.05-11.72,14.66-18.81l-21.34-25.84-24.46,9.4c13.99-26.45,26.58-50.91,37.87-77.68,13.79-32.71,21.95-65.24,31.36-101.29,8.31,28.98,14.38,56.38,24.95,83.95,12.63,32.93,27.55,63.19,44.87,95.16l-24.52-9.9-22.13,26.14,15.6,19.06-21.41,51-.65-28.55-1.67-8.49-14.97-15.79ZM322.71,310.18l16.53,18.43c-6.48-28.24,7.28-50.34,7-76.68-6.32,23.67-12.8,46.97-35.82,60.54,5.29,1.94,7.97-1.27,12.29-2.29ZM378.18,310.57c2.06.21,4.17-1.15,4.31-2.63-7.45-7.03-12.16-15.8-18.03-25.02v41.26s13.72-13.61,13.72-13.61Z"/>
    <polygon points="367.63 754.49 330.83 755.15 330.78 392.67 367.63 392.68 367.63 754.49"/>
    <polygon points="380.03 1013.47 350.16 1081.14 320.91 1014.93 332.03 973.64 332.56 754.68 367.52 754.69 367.67 974.29 380.03 1013.47"/>
  </g>
</svg>
