<?xml version="1.0" encoding="UTF-8"?>
<svg id="Layer_1" xmlns="http://www.w3.org/2000/svg" version="1.1" viewBox="0 0 920.63 130.27" role="img" aria-label="Forge Your Future">
  <!-- Generator: Adobe Illustrator 30.6.0, SVG Export Plug-In . SVG Version: 2.1.4 Build 109)  -->
  <defs>
    <style>
      .st0 {
        fill: #0d1d31;
      }

      .st1 {
        fill: #d6b34a;
      }
    </style>
  </defs>
  <g>
    <path class="st1" d="M71.94,51.61h27.1v14.7h-27.1v24.3h-17.9V23.91h47.3v14.7h-29.4v13Z"/>
    <path class="st1" d="M148.05,47.81c3.3,3.4,4.5,8,4.5,17.4,0,21.6-3.9,25.9-23.4,25.9-11.6,0-17.6-2.1-20.6-7.2-2.2-3.8-2.6-6.8-2.6-18.2,0-10.4,1.2-14.7,4.9-18.1,3.7-3.3,7.9-4.2,19.3-4.2,10.3,0,14.6,1.1,17.9,4.4ZM121.24,66.51c0,11.2,1.2,13.2,8,13.2s8-2,8-13.6c0-9.5-1.3-11.4-7.9-11.4s-8.1,2-8.1,11.8Z"/>
    <path class="st1" d="M175.84,43.91l-.7,7.5h.3c2.7-5.9,5.7-8,11.8-8s9.8,2.5,11.2,7.8c.7,2.4.7,2.6.9,13.1h-13.9c.1-.7.1-1.4.1-1.6,0-6.2-.8-7.7-4.1-7.7-2.5,0-4.3,1.3-5.2,3.7-.4,1.2-.4,1.7-.4,4.9v27h-15.2v-46.7h15.2Z"/>
    <path class="st1" d="M250.54,89.61c0,16.9-5.4,21.8-23.9,21.8-10.1,0-15.5-1.5-18.4-5-1.9-2.3-2.3-4.3-2.5-11.6h14.5c0,4.6,1.1,5.5,6.6,5.5,6.6,0,8.5-1.5,8.5-6.6v-11.4h-.3c-2.1,5.7-6.1,8.2-13.1,8.2-6.4,0-12.2-2.4-14.8-6-2.2-3.2-3-8.3-3-18.6s1.4-15.6,5.1-19c2.6-2.3,6.8-3.5,12.2-3.5,8.4,0,11.9,2.3,14.3,9.4h.3l-.7-8.9h15.2v45.7ZM235.14,68.41c0-8.5-.1-9.2-1.7-11.3-1-1.4-2.8-2-6.3-2-6.9,0-7.7,1.3-7.7,12.1,0,9.9,1.1,11.6,7.6,11.6s8.1-1.8,8.1-8.9v-1.5Z"/>
    <path class="st1" d="M302.94,75.01v.9c0,4-.9,7.4-2.7,9.8-2.8,3.9-7.8,5.4-17.6,5.4-10.9,0-16.4-1.4-20.1-4.9-3.4-3.4-4.5-8.4-4.5-20.1,0-10.1,1.3-15,4.9-18.2,3.5-3.2,8.7-4.5,17.9-4.5,17.1,0,22.1,5,22.1,22.1v4.4h-29.9c-.1.8-.1,1.6-.1,1.9,0,6.7,1.8,8.7,8,8.7,5.5,0,7.1-1.2,7.1-5.5h14.9ZM288.34,61.51c-.1-.7-.1-1.3-.1-1.5,0-2.4-.2-3-.8-3.9-1.1-1.5-2.6-1.9-7.1-1.9-4.2,0-5.7.6-6.6,2.6-.4,1-.5,1.2-.6,4.7h15.2Z"/>
    <path class="st1" d="M372.34,67.41v23.2h-17.9v-23.2l-23.6-43.5h20.4l6,12.8,3,6.5c1,2.1,1.9,4.2,2.9,6.4h.6c1-2.1,2.1-4.5,3-6.4l3.1-6.5,6.2-12.8h20.6l-24.3,43.5Z"/>
    <path class="st1" d="M435.14,47.81c3.3,3.4,4.5,8,4.5,17.4,0,21.6-3.9,25.9-23.4,25.9-11.6,0-17.6-2.1-20.6-7.2-2.2-3.8-2.6-6.8-2.6-18.2,0-10.4,1.2-14.7,4.9-18.1,3.7-3.3,7.9-4.2,19.3-4.2,10.3,0,14.6,1.1,17.9,4.4ZM408.34,66.51c0,11.2,1.2,13.2,8,13.2s8-2,8-13.6c0-9.5-1.3-11.4-7.9-11.4s-8.1,2-8.1,11.8Z"/>
    <path class="st1" d="M492.04,90.61h-15.2l.8-9.6h-.3c-2.2,7-6.5,10.1-14.5,10.1-6.7,0-11.5-2.3-13.8-6.7-1.2-2.2-1.7-4.7-1.7-8.9v-31.6h15.2v26.7q.1,5,.6,6c.9,1.7,2.8,2.6,5.7,2.6,3.3,0,5.9-1.3,7.1-3.6.8-1.4.9-2.2.9-7.3v-24.4h15.2v46.7Z"/>
    <path class="st1" d="M517.44,43.91l-.7,7.5h.3c2.7-5.9,5.7-8,11.8-8s9.8,2.5,11.2,7.8c.7,2.4.7,2.6.9,13.1h-13.9c.1-.7.1-1.4.1-1.6,0-6.2-.8-7.7-4.1-7.7-2.5,0-4.3,1.3-5.2,3.7-.4,1.2-.4,1.7-.4,4.9v27h-15.2v-46.7h15.2Z"/>
    <path class="st1" d="M589.94,51.61h27.1v14.7h-27.1v24.3h-17.9V23.91h47.3v14.7h-29.4v13Z"/>
    <path class="st1" d="M669.44,90.61h-15.2l.8-9.6h-.3c-2.2,7-6.5,10.1-14.5,10.1-6.7,0-11.5-2.3-13.8-6.7-1.2-2.2-1.7-4.7-1.7-8.9v-31.6h15.2v26.7q.1,5,.6,6c.9,1.7,2.8,2.6,5.7,2.6,3.3,0,5.9-1.3,7.1-3.6.8-1.4.9-2.2.9-7.3v-24.4h15.2v46.7Z"/>
    <path class="st1" d="M714.44,54.91h-17.7v18.9c0,5,.6,6.2,3.4,6.2,3.5,0,4.2-1.4,4.2-8.6h12.2l-.1,1.9c0,7.1-.2,8.4-1.1,10.7-2.2,5.3-6.5,7.1-17.6,7.1-8,0-12.1-1.6-14.6-5.6-1.2-2-1.6-4-1.6-8.7v-21.9h-5.7v-11h5.7v-9.8h15.2v9.8h17.7v11Z"/>
    <path class="st1" d="M767.04,90.61h-15.2l.8-9.6h-.3c-2.2,7-6.5,10.1-14.5,10.1-6.7,0-11.5-2.3-13.8-6.7-1.2-2.2-1.7-4.7-1.7-8.9v-31.6h15.2v26.7q.1,5,.6,6c.9,1.7,2.8,2.6,5.7,2.6,3.3,0,5.9-1.3,7.1-3.6.8-1.4.9-2.2.9-7.3v-24.4h15.2v46.7Z"/>
    <path class="st1" d="M792.44,43.91l-.7,7.5h.3c2.7-5.9,5.7-8,11.8-8s9.8,2.5,11.2,7.8c.7,2.4.7,2.6.9,13.1h-13.9c.1-.7.1-1.4.1-1.6,0-6.2-.8-7.7-4.1-7.7-2.5,0-4.3,1.3-5.2,3.7-.4,1.2-.4,1.7-.4,4.9v27h-15.2v-46.7h15.2Z"/>
    <path class="st1" d="M865.64,75.01v.9c0,4-.9,7.4-2.7,9.8-2.8,3.9-7.8,5.4-17.6,5.4-10.9,0-16.4-1.4-20.1-4.9-3.4-3.4-4.5-8.4-4.5-20.1,0-10.1,1.3-15,4.9-18.2,3.5-3.2,8.7-4.5,17.9-4.5,17.1,0,22.1,5,22.1,22.1v4.4h-29.9c-.1.8-.1,1.6-.1,1.9,0,6.7,1.8,8.7,8,8.7,5.5,0,7.1-1.2,7.1-5.5h14.9ZM851.04,61.51c-.1-.7-.1-1.3-.1-1.5,0-2.4-.2-3-.8-3.9-1.1-1.5-2.6-1.9-7.1-1.9-4.2,0-5.7.6-6.6,2.6-.4,1-.5,1.2-.6,4.7h15.2Z"/>
    <path class="st1" d="M887.04,90.61h-14.4v-15.3h14.4v15.3Z"/>
  </g>
</svg>